<?xml version="1.0" ?><!DOCTYPE svg  PUBLIC '-//W3C//DTD SVG 1.1//EN'  'http://www.w3.org/Graphics/SVG/1.1/DTD/svg11.dtd'><svg height="256" version="1.1" viewBox="0, 0, 256, 256" width="256" xmlns="http://www.w3.org/2000/svg" xmlns:xlink="http://www.w3.org/1999/xlink"><g id="Layer_3"><path d="M186.827,71.324 C215.786,71.324 245.347,93.606 245.347,128.357 C245.347,163.109 213.95,184.676 190.785,184.676 C162.498,184.676 152.351,171.382 145.458,163.937 C140.726,158.929 137.057,155.079 132.219,150.179 L150.5,131.985 C155.077,136.596 158.814,140.545 163.099,144.509 C167.384,148.473 171.368,157.876 188.474,157.688 C205.985,157.496 218.685,145.564 218.299,126.902 C217.888,107.046 203.671,98.622 188.482,98.295 C176.544,98.039 166.346,107.469 166.346,107.469 C166.346,107.469 166.417,89.195 166.417,89.195 C166.417,89.195 148.067,89.381 148.067,89.381 C148.067,89.381 164.424,71.324 186.827,71.324 z" fill="#FF910D"/><path d="M114.853,95.689 C118.743,99.61 120.275,100.771 124.165,104.692 L105.827,123.13 C101.832,119.122 100.187,117.78 96.188,113.777 L96.185,95.576 z" fill="#FF910D"/><path d="M161.04,94.768 C161.087,99.281 161.04,112.856 161.04,112.856 C161.04,112.856 117.439,156.489 110.542,163.937 C103.649,171.382 93.502,184.676 65.215,184.676 C42.05,184.676 10.653,163.109 10.653,128.357 C10.653,93.606 40.214,71.324 69.173,71.324 C91.576,71.324 107.933,89.381 107.933,89.381 C107.933,89.381 89.583,89.195 89.583,89.195 C89.583,89.195 89.654,107.469 89.654,107.469 C89.654,107.469 79.456,98.039 67.518,98.295 C52.329,98.622 38.112,107.046 37.701,126.902 C37.315,145.564 50.015,157.496 67.526,157.688 C84.632,157.876 92.891,144.63 92.891,144.63 C92.891,144.63 142.375,94.768 142.375,94.768 C142.375,94.768 157.488,94.782 161.04,94.768 z" fill="#168AD9"/></g></svg>